<svg xmlns="http://www.w3.org/2000/svg" width="1000" height="1000" viewBox="0 0 1000 1000" fill="none" role="img" aria-labelledby="css-title css-description">
  <title id="css-title">CSS Logo</title>
  <desc id="css-description">A purple square with rounded corners and the letters CSS inside in white</desc>
  <path d="M0,0
      H840
		  A 160 160 0 0 1 1000 160
				V840
		  A 160 160 0 0 1 840 1000
		  H160
		  A 160 160 0 0 1 0 840
		  Z
  " fill="rebeccapurple" />
  <g class="CSS"
    stroke-width="72" stroke="white"
    transform="translate(820 730)"
  >
    <path class="C"
      transform="translate(-470 0)"
      d="M 65,-75 
C 65,-107 54,-155 0,-155 
C -54,-155 -65,-107 -65,-75 
L -65,75 
C -65,107 -54,155 0,155 
C 54,155 65,107 65,75"
    />
    <path class="S"
      transform="translate(-235 0)"
      d="M 65,-75 
C 65,-107 54,-155 0,-155 
C -54,-155 -65,-107 -65,-75 
C -65,19 65,-19 65,75 
C 65,107 54,155 0,155 
C -54,155 -65,107 -65,75"
    />
    <path class="S"
      transform="translate(-0 0)"
      d="M 65,-75 
C 65,-107 54,-155 0,-155 
C -54,-155 -65,-107 -65,-75 
C -65,19 65,-19 65,75 
C 65,107 54,155 0,155 
C -54,155 -65,107 -65,75"
    />
  </g>
</svg>